M48
; plated through holes
INCH,TZ
T01C0.0354
%
G90
T01
X001378Y001969
X001378Y002969
X001378Y003969
X001378Y004969
X001378Y005969
X001378Y006969
X001378Y007969
X001378Y008969
X001378Y009969
X001378Y010969
X001378Y011969
X001378Y012969
X001378Y013969
X015449Y001969
X015449Y002969
X015449Y003969
X015449Y004969
X015449Y005969
X015449Y006969
X015449Y007969
X009449Y007969
X009449Y006969
X009449Y005969
X009449Y004969
X009449Y003969
X009449Y002969
X009449Y001969
M30
