G04 Bottom silkscreen*
%FSLAX25Y25*%
%MOIN*%
%IPPOS*%
%LPD*%
%ADD19C,0.007087*%
%ADD20R,0.006693X0.006693*%
%ADD21R,0.005906X0.005906*%
G01*
D20*
X0138582Y0146457D03*
D20*
X0137795Y0146457D03*
D20*
X0137008Y0146457D03*
D20*
X0136220Y0146457D03*
D20*
X0138582Y0145669D03*
D20*
X0135433Y0145669D03*
D20*
X0138582Y0144882D03*
D20*
X0135433Y0144882D03*
D20*
X0138582Y0144094D03*
D20*
X0137795Y0144094D03*
D20*
X0137008Y0144094D03*
D20*
X0136220Y0144094D03*
D20*
X0138582Y0143307D03*
D20*
X0138582Y0142520D03*
D20*
X0138582Y0141732D03*
D20*
X0133858Y0146457D03*
D20*
X0130708Y0146457D03*
D20*
X0133858Y0145669D03*
D20*
X0133071Y0145669D03*
D20*
X0130708Y0145669D03*
D20*
X0133858Y0144882D03*
D20*
X0132283Y0144882D03*
D20*
X0130708Y0144882D03*
D20*
X0133858Y0144094D03*
D20*
X0131496Y0144094D03*
D20*
X0130708Y0144094D03*
D20*
X0133858Y0143307D03*
D20*
X0130708Y0143307D03*
D20*
X0133858Y0142520D03*
D20*
X0130708Y0142520D03*
D20*
X0133858Y0141732D03*
D20*
X0130708Y0141732D03*
D20*
X0129134Y0146457D03*
D20*
X0128346Y0146457D03*
D20*
X0127559Y0146457D03*
D20*
X0126771Y0146457D03*
D20*
X0125984Y0146457D03*
D20*
X0129134Y0145669D03*
D20*
X0129134Y0144882D03*
D20*
X0129134Y0144094D03*
D20*
X0128346Y0144094D03*
D20*
X0127559Y0144094D03*
D20*
X0126771Y0144094D03*
D20*
X0125984Y0143307D03*
D20*
X0125984Y0142520D03*
D20*
X0129134Y0141732D03*
D20*
X0128346Y0141732D03*
D20*
X0127559Y0141732D03*
D20*
X0126771Y0141732D03*
D20*
X0122834Y0146457D03*
D20*
X0123622Y0145669D03*
D20*
X0122834Y0145669D03*
D20*
X0122834Y0144882D03*
D20*
X0122834Y0144094D03*
D20*
X0122834Y0143307D03*
D20*
X0122834Y0142520D03*
D20*
X0123622Y0141732D03*
D20*
X0122834Y0141732D03*
D20*
X0122047Y0141732D03*
D20*
X0118897Y0146457D03*
D20*
X0118110Y0146457D03*
D20*
X0117322Y0146457D03*
D20*
X0119685Y0145669D03*
D20*
X0116535Y0145669D03*
D20*
X0119685Y0144882D03*
D20*
X0116535Y0144882D03*
D20*
X0118897Y0144094D03*
D20*
X0118110Y0144094D03*
D20*
X0117322Y0144094D03*
D20*
X0119685Y0143307D03*
D20*
X0116535Y0143307D03*
D20*
X0119685Y0142520D03*
D20*
X0116535Y0142520D03*
D20*
X0118897Y0141732D03*
D20*
X0118110Y0141732D03*
D20*
X0117322Y0141732D03*
D20*
X0114173Y0146457D03*
D20*
X0113385Y0146457D03*
D20*
X0112598Y0146457D03*
D20*
X0114960Y0145669D03*
D20*
X0111811Y0145669D03*
D20*
X0114960Y0144882D03*
D20*
X0112598Y0144882D03*
D20*
X0111811Y0144882D03*
D20*
X0114960Y0144094D03*
D20*
X0113385Y0144094D03*
D20*
X0111811Y0144094D03*
D20*
X0114960Y0143307D03*
D20*
X0114173Y0143307D03*
D20*
X0111811Y0143307D03*
D20*
X0114960Y0142520D03*
D20*
X0111811Y0142520D03*
D20*
X0114173Y0141732D03*
D20*
X0113385Y0141732D03*
D20*
X0112598Y0141732D03*
D20*
X0104724Y0146457D03*
D20*
X0103937Y0146457D03*
D20*
X0103149Y0146457D03*
D20*
X0102362Y0146457D03*
D20*
X0105511Y0145669D03*
D20*
X0105511Y0144882D03*
D20*
X0104724Y0144094D03*
D20*
X0103937Y0144094D03*
D20*
X0103149Y0144094D03*
D20*
X0102362Y0143307D03*
D20*
X0102362Y0142520D03*
D20*
X0105511Y0141732D03*
D20*
X0104724Y0141732D03*
D20*
X0103937Y0141732D03*
D20*
X0103149Y0141732D03*
D20*
X0100000Y0146457D03*
D20*
X0099212Y0146457D03*
D20*
X0098425Y0146457D03*
D20*
X0100787Y0145669D03*
D20*
X0097637Y0145669D03*
D20*
X0100787Y0144882D03*
D20*
X0097637Y0144882D03*
D20*
X0100787Y0144094D03*
D20*
X0097637Y0144094D03*
D20*
X0100787Y0143307D03*
D20*
X0097637Y0143307D03*
D20*
X0100787Y0142520D03*
D20*
X0097637Y0142520D03*
D20*
X0100000Y0141732D03*
D20*
X0099212Y0141732D03*
D20*
X0098425Y0141732D03*
D20*
X0095275Y0146457D03*
D20*
X0094488Y0146457D03*
D20*
X0093700Y0146457D03*
D20*
X0092913Y0146457D03*
D20*
X0096063Y0145669D03*
D20*
X0096063Y0144882D03*
D20*
X0096063Y0144094D03*
D20*
X0096063Y0143307D03*
D20*
X0096063Y0142520D03*
D20*
X0095275Y0141732D03*
D20*
X0094488Y0141732D03*
D20*
X0093700Y0141732D03*
D20*
X0092913Y0141732D03*
D20*
X0091338Y0146457D03*
D20*
X0088189Y0146457D03*
D20*
X0091338Y0145669D03*
D20*
X0088976Y0145669D03*
D20*
X0091338Y0144882D03*
D20*
X0089763Y0144882D03*
D20*
X0091338Y0144094D03*
D20*
X0090551Y0144094D03*
D20*
X0091338Y0143307D03*
D20*
X0089763Y0143307D03*
D20*
X0091338Y0142520D03*
D20*
X0088976Y0142520D03*
D20*
X0091338Y0141732D03*
D20*
X0088189Y0141732D03*
D20*
X0086614Y0146457D03*
D20*
X0085826Y0146457D03*
D20*
X0085039Y0146457D03*
D20*
X0084252Y0146457D03*
D20*
X0083464Y0146457D03*
D20*
X0086614Y0145669D03*
D20*
X0086614Y0144882D03*
D20*
X0086614Y0144094D03*
D20*
X0085826Y0144094D03*
D20*
X0085039Y0144094D03*
D20*
X0084252Y0144094D03*
D20*
X0086614Y0143307D03*
D20*
X0086614Y0142520D03*
D20*
X0086614Y0141732D03*
D20*
X0085826Y0141732D03*
D20*
X0085039Y0141732D03*
D20*
X0084252Y0141732D03*
D20*
X0083464Y0141732D03*
D20*
X0081889Y0146457D03*
D20*
X0081102Y0146457D03*
D20*
X0080315Y0146457D03*
D20*
X0079527Y0146457D03*
D20*
X0078740Y0146457D03*
D20*
X0080315Y0145669D03*
D20*
X0080315Y0144882D03*
D20*
X0080315Y0144094D03*
D20*
X0080315Y0143307D03*
D20*
X0080315Y0142520D03*
D20*
X0080315Y0141732D03*
D20*
X0072441Y0146457D03*
D20*
X0071653Y0146457D03*
D20*
X0070866Y0146457D03*
D20*
X0070078Y0146457D03*
D20*
X0069291Y0146457D03*
D20*
X0070866Y0145669D03*
D20*
X0070866Y0144882D03*
D20*
X0070866Y0144094D03*
D20*
X0070866Y0143307D03*
D20*
X0070866Y0142520D03*
D20*
X0070866Y0141732D03*
D20*
X0067716Y0146457D03*
D20*
X0064567Y0146457D03*
D20*
X0067716Y0145669D03*
D20*
X0064567Y0145669D03*
D20*
X0067716Y0144882D03*
D20*
X0064567Y0144882D03*
D20*
X0067716Y0144094D03*
D20*
X0066929Y0144094D03*
D20*
X0066141Y0144094D03*
D20*
X0065354Y0144094D03*
D20*
X0064567Y0144094D03*
D20*
X0067716Y0143307D03*
D20*
X0064567Y0143307D03*
D20*
X0067716Y0142520D03*
D20*
X0064567Y0142520D03*
D20*
X0067716Y0141732D03*
D20*
X0064567Y0141732D03*
D20*
X0062992Y0146457D03*
D20*
X0062204Y0146457D03*
D20*
X0061417Y0146457D03*
D20*
X0060630Y0146457D03*
D20*
X0059842Y0146457D03*
D20*
X0061417Y0145669D03*
D20*
X0061417Y0144882D03*
D20*
X0061417Y0144094D03*
D20*
X0061417Y0143307D03*
D20*
X0061417Y0142520D03*
D20*
X0062992Y0141732D03*
D20*
X0062204Y0141732D03*
D20*
X0061417Y0141732D03*
D20*
X0060630Y0141732D03*
D20*
X0059842Y0141732D03*
D20*
X0057480Y0146457D03*
D20*
X0056693Y0146457D03*
D20*
X0055905Y0146457D03*
D20*
X0055118Y0146457D03*
D20*
X0058267Y0145669D03*
D20*
X0058267Y0144882D03*
D20*
X0057480Y0144094D03*
D20*
X0056693Y0144094D03*
D20*
X0055905Y0144094D03*
D20*
X0055118Y0143307D03*
D20*
X0055118Y0142520D03*
D20*
X0058267Y0141732D03*
D20*
X0057480Y0141732D03*
D20*
X0056693Y0141732D03*
D20*
X0055905Y0141732D03*
D20*
X0048031Y0146457D03*
D20*
X0047244Y0146457D03*
D20*
X0046456Y0146457D03*
D20*
X0045669Y0146457D03*
D20*
X0048819Y0145669D03*
D20*
X0048819Y0144882D03*
D20*
X0048031Y0144094D03*
D20*
X0047244Y0144094D03*
D20*
X0046456Y0144094D03*
D20*
X0045669Y0143307D03*
D20*
X0045669Y0142520D03*
D20*
X0048819Y0141732D03*
D20*
X0048031Y0141732D03*
D20*
X0047244Y0141732D03*
D20*
X0046456Y0141732D03*
D20*
X0044094Y0146457D03*
D20*
X0043307Y0146457D03*
D20*
X0042519Y0146457D03*
D20*
X0041732Y0146457D03*
D20*
X0040945Y0146457D03*
D20*
X0042519Y0145669D03*
D20*
X0042519Y0144882D03*
D20*
X0042519Y0144094D03*
D20*
X0042519Y0143307D03*
D20*
X0042519Y0142520D03*
D20*
X0044094Y0141732D03*
D20*
X0043307Y0141732D03*
D20*
X0042519Y0141732D03*
D20*
X0041732Y0141732D03*
D20*
X0040945Y0141732D03*
D20*
X0039370Y0146457D03*
D20*
X0038582Y0146457D03*
D20*
X0037795Y0146457D03*
D20*
X0037008Y0146457D03*
D20*
X0039370Y0145669D03*
D20*
X0036220Y0145669D03*
D20*
X0039370Y0144882D03*
D20*
X0036220Y0144882D03*
D20*
X0039370Y0144094D03*
D20*
X0036220Y0144094D03*
D20*
X0039370Y0143307D03*
D20*
X0036220Y0143307D03*
D20*
X0039370Y0142520D03*
D20*
X0036220Y0142520D03*
D20*
X0039370Y0141732D03*
D20*
X0038582Y0141732D03*
D20*
X0037795Y0141732D03*
D20*
X0037008Y0141732D03*
D20*
X0034645Y0146457D03*
D20*
X0033858Y0146457D03*
D20*
X0033071Y0146457D03*
D20*
X0032283Y0146457D03*
D20*
X0031496Y0146457D03*
D20*
X0034645Y0145669D03*
D20*
X0034645Y0144882D03*
D20*
X0034645Y0144094D03*
D20*
X0033858Y0144094D03*
D20*
X0033071Y0144094D03*
D20*
X0032283Y0144094D03*
D20*
X0034645Y0143307D03*
D20*
X0034645Y0142520D03*
D20*
X0034645Y0141732D03*
D20*
X0033858Y0141732D03*
D20*
X0033071Y0141732D03*
D20*
X0032283Y0141732D03*
D20*
X0031496Y0141732D03*
D20*
X0141870Y0137087D03*
D20*
X0141200Y0137087D03*
D20*
X0140531Y0137087D03*
D20*
X0142539Y0136417D03*
D20*
X0139862Y0136417D03*
D20*
X0142539Y0135748D03*
D20*
X0139862Y0135748D03*
D20*
X0142539Y0135079D03*
D20*
X0141870Y0135079D03*
D20*
X0141200Y0135079D03*
D20*
X0140531Y0135079D03*
D20*
X0139862Y0135079D03*
D20*
X0142539Y0134409D03*
D20*
X0139862Y0134409D03*
D20*
X0142539Y0133740D03*
D20*
X0139862Y0133740D03*
D20*
X0142539Y0133071D03*
D20*
X0139862Y0133071D03*
D20*
X0138523Y0137087D03*
D20*
X0138523Y0136417D03*
D20*
X0138523Y0135748D03*
D20*
X0138523Y0135079D03*
D20*
X0138523Y0134409D03*
D20*
X0138523Y0133740D03*
D20*
X0138523Y0133071D03*
D20*
X0137854Y0133071D03*
D20*
X0137185Y0133071D03*
D20*
X0136515Y0133071D03*
D20*
X0135846Y0133071D03*
D20*
X0134508Y0137087D03*
D20*
X0133838Y0137087D03*
D20*
X0133169Y0137087D03*
D20*
X0132500Y0137087D03*
D20*
X0131830Y0137087D03*
D20*
X0133169Y0136417D03*
D20*
X0133169Y0135748D03*
D20*
X0133169Y0135079D03*
D20*
X0133169Y0134409D03*
D20*
X0133169Y0133740D03*
D20*
X0134508Y0133071D03*
D20*
X0133838Y0133071D03*
D20*
X0133169Y0133071D03*
D20*
X0132500Y0133071D03*
D20*
X0131830Y0133071D03*
D20*
X0129822Y0137087D03*
D20*
X0129153Y0137087D03*
D20*
X0128484Y0137087D03*
D20*
X0127815Y0137087D03*
D20*
X0130492Y0136417D03*
D20*
X0130492Y0135748D03*
D20*
X0130492Y0135079D03*
D20*
X0129153Y0135079D03*
D20*
X0128484Y0135079D03*
D20*
X0127815Y0135079D03*
D20*
X0130492Y0134409D03*
D20*
X0127815Y0134409D03*
D20*
X0130492Y0133740D03*
D20*
X0127815Y0133740D03*
D20*
X0129822Y0133071D03*
D20*
X0129153Y0133071D03*
D20*
X0128484Y0133071D03*
D20*
X0127815Y0133071D03*
D20*
X0126476Y0137087D03*
D20*
X0123799Y0137087D03*
D20*
X0126476Y0136417D03*
D20*
X0125807Y0136417D03*
D20*
X0123799Y0136417D03*
D20*
X0126476Y0135748D03*
D20*
X0125137Y0135748D03*
D20*
X0123799Y0135748D03*
D20*
X0126476Y0135079D03*
D20*
X0124468Y0135079D03*
D20*
X0123799Y0135079D03*
D20*
X0126476Y0134409D03*
D20*
X0123799Y0134409D03*
D20*
X0126476Y0133740D03*
D20*
X0123799Y0133740D03*
D20*
X0126476Y0133071D03*
D20*
X0123799Y0133071D03*
D20*
X0117106Y0137087D03*
D20*
X0116437Y0137087D03*
D20*
X0115767Y0137087D03*
D20*
X0116437Y0136417D03*
D20*
X0116437Y0135748D03*
D20*
X0116437Y0135079D03*
D20*
X0118445Y0134409D03*
D20*
X0116437Y0134409D03*
D20*
X0118445Y0133740D03*
D20*
X0116437Y0133740D03*
D20*
X0117775Y0133071D03*
D20*
X0117106Y0133071D03*
D20*
X0113090Y0137087D03*
D20*
X0113760Y0136417D03*
D20*
X0113090Y0136417D03*
D20*
X0113090Y0135748D03*
D20*
X0113090Y0135079D03*
D20*
X0113090Y0134409D03*
D20*
X0113090Y0133740D03*
D20*
X0113760Y0133071D03*
D20*
X0113090Y0133071D03*
D20*
X0112421Y0133071D03*
D20*
X0106397Y0137087D03*
D20*
X0105728Y0137087D03*
D20*
X0105059Y0137087D03*
D20*
X0104389Y0137087D03*
D20*
X0106397Y0136417D03*
D20*
X0103720Y0136417D03*
D20*
X0106397Y0135748D03*
D20*
X0103720Y0135748D03*
D20*
X0106397Y0135079D03*
D20*
X0105728Y0135079D03*
D20*
X0105059Y0135079D03*
D20*
X0104389Y0135079D03*
D20*
X0106397Y0134409D03*
D20*
X0106397Y0133740D03*
D20*
X0106397Y0133071D03*
D20*
X0102382Y0137087D03*
D20*
X0101712Y0137087D03*
D20*
X0101043Y0137087D03*
D20*
X0100374Y0137087D03*
D20*
X0099704Y0137087D03*
D20*
X0101043Y0136417D03*
D20*
X0101043Y0135748D03*
D20*
X0101043Y0135079D03*
D20*
X0101043Y0134409D03*
D20*
X0101043Y0133740D03*
D20*
X0102382Y0133071D03*
D20*
X0101712Y0133071D03*
D20*
X0101043Y0133071D03*
D20*
X0100374Y0133071D03*
D20*
X0099704Y0133071D03*
D20*
X0098366Y0137087D03*
D20*
X0095689Y0137087D03*
D20*
X0098366Y0136417D03*
D20*
X0097697Y0136417D03*
D20*
X0095689Y0136417D03*
D20*
X0098366Y0135748D03*
D20*
X0097027Y0135748D03*
D20*
X0095689Y0135748D03*
D20*
X0098366Y0135079D03*
D20*
X0096358Y0135079D03*
D20*
X0095689Y0135079D03*
D20*
X0098366Y0134409D03*
D20*
X0095689Y0134409D03*
D20*
X0098366Y0133740D03*
D20*
X0095689Y0133740D03*
D20*
X0098366Y0133071D03*
D20*
X0095689Y0133071D03*
D20*
X0088996Y0137087D03*
D20*
X0089665Y0136417D03*
D20*
X0088996Y0136417D03*
D20*
X0088996Y0135748D03*
D20*
X0088996Y0135079D03*
D20*
X0088996Y0134409D03*
D20*
X0088996Y0133740D03*
D20*
X0089665Y0133071D03*
D20*
X0088996Y0133071D03*
D20*
X0088326Y0133071D03*
D20*
X0082303Y0137087D03*
D20*
X0079626Y0137087D03*
D20*
X0082303Y0136417D03*
D20*
X0079626Y0136417D03*
D20*
X0082303Y0135748D03*
D20*
X0079626Y0135748D03*
D20*
X0082303Y0135079D03*
D20*
X0080964Y0135079D03*
D20*
X0079626Y0135079D03*
D20*
X0082303Y0134409D03*
D20*
X0080964Y0134409D03*
D20*
X0079626Y0134409D03*
D20*
X0082303Y0133740D03*
D20*
X0080964Y0133740D03*
D20*
X0079626Y0133740D03*
D20*
X0081634Y0133071D03*
D20*
X0080295Y0133071D03*
D20*
X0078287Y0137087D03*
D20*
X0077618Y0137087D03*
D20*
X0076948Y0137087D03*
D20*
X0076279Y0137087D03*
D20*
X0075610Y0137087D03*
D20*
X0076948Y0136417D03*
D20*
X0076948Y0135748D03*
D20*
X0076948Y0135079D03*
D20*
X0076948Y0134409D03*
D20*
X0076948Y0133740D03*
D20*
X0078287Y0133071D03*
D20*
X0077618Y0133071D03*
D20*
X0076948Y0133071D03*
D20*
X0076279Y0133071D03*
D20*
X0075610Y0133071D03*
D20*
X0074271Y0137087D03*
D20*
X0073602Y0137087D03*
D20*
X0072933Y0137087D03*
D20*
X0072263Y0137087D03*
D20*
X0071594Y0137087D03*
D20*
X0072933Y0136417D03*
D20*
X0072933Y0135748D03*
D20*
X0072933Y0135079D03*
D20*
X0072933Y0134409D03*
D20*
X0072933Y0133740D03*
D20*
X0072933Y0133071D03*
D20*
X0070256Y0137087D03*
D20*
X0067578Y0137087D03*
D20*
X0070256Y0136417D03*
D20*
X0067578Y0136417D03*
D20*
X0070256Y0135748D03*
D20*
X0067578Y0135748D03*
D20*
X0070256Y0135079D03*
D20*
X0069586Y0135079D03*
D20*
X0068917Y0135079D03*
D20*
X0068248Y0135079D03*
D20*
X0067578Y0135079D03*
D20*
X0070256Y0134409D03*
D20*
X0067578Y0134409D03*
D20*
X0070256Y0133740D03*
D20*
X0067578Y0133740D03*
D20*
X0070256Y0133071D03*
D20*
X0067578Y0133071D03*
D20*
X0062224Y0137087D03*
D20*
X0061555Y0137087D03*
D20*
X0060885Y0137087D03*
D20*
X0060216Y0137087D03*
D20*
X0062224Y0136417D03*
D20*
X0059547Y0136417D03*
D20*
X0062224Y0135748D03*
D20*
X0059547Y0135748D03*
D20*
X0062224Y0135079D03*
D20*
X0061555Y0135079D03*
D20*
X0060885Y0135079D03*
D20*
X0060216Y0135079D03*
D20*
X0062224Y0134409D03*
D20*
X0062224Y0133740D03*
D20*
X0062224Y0133071D03*
D20*
X0058208Y0137087D03*
D20*
X0055531Y0137087D03*
D20*
X0058208Y0136417D03*
D20*
X0057539Y0136417D03*
D20*
X0055531Y0136417D03*
D20*
X0058208Y0135748D03*
D20*
X0056870Y0135748D03*
D20*
X0055531Y0135748D03*
D20*
X0058208Y0135079D03*
D20*
X0056200Y0135079D03*
D20*
X0055531Y0135079D03*
D20*
X0058208Y0134409D03*
D20*
X0055531Y0134409D03*
D20*
X0058208Y0133740D03*
D20*
X0055531Y0133740D03*
D20*
X0058208Y0133071D03*
D20*
X0055531Y0133071D03*
D20*
X0054193Y0137087D03*
D20*
X0053523Y0137087D03*
D20*
X0052854Y0137087D03*
D20*
X0052185Y0137087D03*
D20*
X0051515Y0137087D03*
D20*
X0054193Y0136417D03*
D20*
X0054193Y0135748D03*
D20*
X0054193Y0135079D03*
D20*
X0053523Y0135079D03*
D20*
X0052854Y0135079D03*
D20*
X0052185Y0135079D03*
D20*
X0051515Y0134409D03*
D20*
X0051515Y0133740D03*
D20*
X0054193Y0133071D03*
D20*
X0053523Y0133071D03*
D20*
X0052854Y0133071D03*
D20*
X0052185Y0133071D03*
D20*
X0048838Y0137087D03*
D20*
X0049508Y0136417D03*
D20*
X0048838Y0136417D03*
D20*
X0048838Y0135748D03*
D20*
X0048838Y0135079D03*
D20*
X0048838Y0134409D03*
D20*
X0048838Y0133740D03*
D20*
X0049508Y0133071D03*
D20*
X0048838Y0133071D03*
D20*
X0048169Y0133071D03*
D20*
X0045492Y0137087D03*
D20*
X0044822Y0137087D03*
D20*
X0044153Y0137087D03*
D20*
X0046161Y0136417D03*
D20*
X0043484Y0136417D03*
D20*
X0046161Y0135748D03*
D20*
X0043484Y0135748D03*
D20*
X0045492Y0135079D03*
D20*
X0044822Y0135079D03*
D20*
X0044153Y0135079D03*
D20*
X0046161Y0134409D03*
D20*
X0043484Y0134409D03*
D20*
X0046161Y0133740D03*
D20*
X0043484Y0133740D03*
D20*
X0045492Y0133071D03*
D20*
X0044822Y0133071D03*
D20*
X0044153Y0133071D03*
D20*
X0041476Y0137087D03*
D20*
X0040807Y0137087D03*
D20*
X0040137Y0137087D03*
D20*
X0042145Y0136417D03*
D20*
X0039468Y0136417D03*
D20*
X0042145Y0135748D03*
D20*
X0040137Y0135748D03*
D20*
X0039468Y0135748D03*
D20*
X0042145Y0135079D03*
D20*
X0040807Y0135079D03*
D20*
X0039468Y0135079D03*
D20*
X0042145Y0134409D03*
D20*
X0041476Y0134409D03*
D20*
X0039468Y0134409D03*
D20*
X0042145Y0133740D03*
D20*
X0039468Y0133740D03*
D20*
X0041476Y0133071D03*
D20*
X0040807Y0133071D03*
D20*
X0040137Y0133071D03*
D20*
X0034114Y0137087D03*
D20*
X0033445Y0137087D03*
D20*
X0032775Y0137087D03*
D20*
X0032106Y0137087D03*
D20*
X0031437Y0137087D03*
D20*
X0034114Y0136417D03*
D20*
X0034114Y0135748D03*
D20*
X0034114Y0135079D03*
D20*
X0033445Y0135079D03*
D20*
X0032775Y0135079D03*
D20*
X0032106Y0135079D03*
D20*
X0031437Y0134409D03*
D20*
X0031437Y0133740D03*
D20*
X0034114Y0133071D03*
D20*
X0033445Y0133071D03*
D20*
X0032775Y0133071D03*
D20*
X0032106Y0133071D03*
D20*
X0030098Y0137087D03*
D20*
X0027421Y0137087D03*
D20*
X0030098Y0136417D03*
D20*
X0027421Y0136417D03*
D20*
X0030098Y0135748D03*
D20*
X0027421Y0135748D03*
D20*
X0030098Y0135079D03*
D20*
X0027421Y0135079D03*
D20*
X0030098Y0134409D03*
D20*
X0027421Y0134409D03*
D20*
X0029429Y0133740D03*
D20*
X0028090Y0133740D03*
D20*
X0028760Y0133071D03*
D20*
X0148415Y0128465D03*
D20*
X0147805Y0128465D03*
D20*
X0147195Y0128465D03*
D20*
X0146584Y0128465D03*
D20*
X0148415Y0127854D03*
D20*
X0145974Y0127854D03*
D20*
X0148415Y0127244D03*
D20*
X0145974Y0127244D03*
D20*
X0148415Y0126634D03*
D20*
X0147805Y0126634D03*
D20*
X0147195Y0126634D03*
D20*
X0146584Y0126634D03*
D20*
X0148415Y0126024D03*
D20*
X0147195Y0126024D03*
D20*
X0148415Y0125413D03*
D20*
X0146584Y0125413D03*
D20*
X0148415Y0124803D03*
D20*
X0145974Y0124803D03*
D20*
X0144754Y0128465D03*
D20*
X0144143Y0128465D03*
D20*
X0143533Y0128465D03*
D20*
X0142923Y0128465D03*
D20*
X0142313Y0128465D03*
D20*
X0144754Y0127854D03*
D20*
X0144754Y0127244D03*
D20*
X0144754Y0126634D03*
D20*
X0144143Y0126634D03*
D20*
X0143533Y0126634D03*
D20*
X0142923Y0126634D03*
D20*
X0144754Y0126024D03*
D20*
X0144754Y0125413D03*
D20*
X0144754Y0124803D03*
D20*
X0144143Y0124803D03*
D20*
X0143533Y0124803D03*
D20*
X0142923Y0124803D03*
D20*
X0142313Y0124803D03*
D20*
X0141092Y0128465D03*
D20*
X0138651Y0128465D03*
D20*
X0141092Y0127854D03*
D20*
X0138651Y0127854D03*
D20*
X0141092Y0127244D03*
D20*
X0138651Y0127244D03*
D20*
X0141092Y0126634D03*
D20*
X0138651Y0126634D03*
D20*
X0141092Y0126024D03*
D20*
X0138651Y0126024D03*
D20*
X0140482Y0125413D03*
D20*
X0139261Y0125413D03*
D20*
X0139872Y0124803D03*
D20*
X0137431Y0128465D03*
D20*
X0136821Y0128465D03*
D20*
X0136210Y0128465D03*
D20*
X0135600Y0128465D03*
D20*
X0134990Y0128465D03*
D20*
X0137431Y0127854D03*
D20*
X0137431Y0127244D03*
D20*
X0137431Y0126634D03*
D20*
X0136821Y0126634D03*
D20*
X0136210Y0126634D03*
D20*
X0135600Y0126634D03*
D20*
X0137431Y0126024D03*
D20*
X0137431Y0125413D03*
D20*
X0137431Y0124803D03*
D20*
X0136821Y0124803D03*
D20*
X0136210Y0124803D03*
D20*
X0135600Y0124803D03*
D20*
X0134990Y0124803D03*
D20*
X0133769Y0128465D03*
D20*
X0133159Y0128465D03*
D20*
X0132549Y0128465D03*
D20*
X0131939Y0128465D03*
D20*
X0133769Y0127854D03*
D20*
X0131328Y0127854D03*
D20*
X0133769Y0127244D03*
D20*
X0131328Y0127244D03*
D20*
X0133769Y0126634D03*
D20*
X0133159Y0126634D03*
D20*
X0132549Y0126634D03*
D20*
X0131939Y0126634D03*
D20*
X0133769Y0126024D03*
D20*
X0132549Y0126024D03*
D20*
X0133769Y0125413D03*
D20*
X0131939Y0125413D03*
D20*
X0133769Y0124803D03*
D20*
X0131328Y0124803D03*
D20*
X0129498Y0128465D03*
D20*
X0128887Y0128465D03*
D20*
X0128277Y0128465D03*
D20*
X0127667Y0128465D03*
D20*
X0130108Y0127854D03*
D20*
X0130108Y0127244D03*
D20*
X0129498Y0126634D03*
D20*
X0128887Y0126634D03*
D20*
X0128277Y0126634D03*
D20*
X0127667Y0126024D03*
D20*
X0127667Y0125413D03*
D20*
X0130108Y0124803D03*
D20*
X0129498Y0124803D03*
D20*
X0128887Y0124803D03*
D20*
X0128277Y0124803D03*
D20*
X0126447Y0128465D03*
D20*
X0125836Y0128465D03*
D20*
X0125226Y0128465D03*
D20*
X0124616Y0128465D03*
D20*
X0124006Y0128465D03*
D20*
X0126447Y0127854D03*
D20*
X0126447Y0127244D03*
D20*
X0126447Y0126634D03*
D20*
X0125836Y0126634D03*
D20*
X0125226Y0126634D03*
D20*
X0124616Y0126634D03*
D20*
X0126447Y0126024D03*
D20*
X0126447Y0125413D03*
D20*
X0126447Y0124803D03*
D20*
X0125836Y0124803D03*
D20*
X0125226Y0124803D03*
D20*
X0124616Y0124803D03*
D20*
X0124006Y0124803D03*
D20*
X0119124Y0128465D03*
D20*
X0118513Y0128465D03*
D20*
X0117903Y0128465D03*
D20*
X0117293Y0128465D03*
D20*
X0116683Y0128465D03*
D20*
X0117903Y0127854D03*
D20*
X0117903Y0127244D03*
D20*
X0117903Y0126634D03*
D20*
X0117903Y0126024D03*
D20*
X0117903Y0125413D03*
D20*
X0119124Y0124803D03*
D20*
X0118513Y0124803D03*
D20*
X0117903Y0124803D03*
D20*
X0117293Y0124803D03*
D20*
X0116683Y0124803D03*
D20*
X0115462Y0128465D03*
D20*
X0113021Y0128465D03*
D20*
X0115462Y0127854D03*
D20*
X0114852Y0127854D03*
D20*
X0113021Y0127854D03*
D20*
X0115462Y0127244D03*
D20*
X0114242Y0127244D03*
D20*
X0113021Y0127244D03*
D20*
X0115462Y0126634D03*
D20*
X0113632Y0126634D03*
D20*
X0113021Y0126634D03*
D20*
X0115462Y0126024D03*
D20*
X0113021Y0126024D03*
D20*
X0115462Y0125413D03*
D20*
X0113021Y0125413D03*
D20*
X0115462Y0124803D03*
D20*
X0113021Y0124803D03*
D20*
X0111191Y0128465D03*
D20*
X0110580Y0128465D03*
D20*
X0109970Y0128465D03*
D20*
X0109360Y0128465D03*
D20*
X0111801Y0127854D03*
D20*
X0111801Y0127244D03*
D20*
X0111191Y0126634D03*
D20*
X0110580Y0126634D03*
D20*
X0109970Y0126634D03*
D20*
X0109360Y0126024D03*
D20*
X0109360Y0125413D03*
D20*
X0111801Y0124803D03*
D20*
X0111191Y0124803D03*
D20*
X0110580Y0124803D03*
D20*
X0109970Y0124803D03*
D20*
X0108139Y0128465D03*
D20*
X0107529Y0128465D03*
D20*
X0106919Y0128465D03*
D20*
X0106309Y0128465D03*
D20*
X0105698Y0128465D03*
D20*
X0108139Y0127854D03*
D20*
X0108139Y0127244D03*
D20*
X0108139Y0126634D03*
D20*
X0107529Y0126634D03*
D20*
X0106919Y0126634D03*
D20*
X0106309Y0126634D03*
D20*
X0108139Y0126024D03*
D20*
X0108139Y0125413D03*
D20*
X0108139Y0124803D03*
D20*
X0107529Y0124803D03*
D20*
X0106919Y0124803D03*
D20*
X0106309Y0124803D03*
D20*
X0105698Y0124803D03*
D20*
X0104478Y0128465D03*
D20*
X0103868Y0128465D03*
D20*
X0103258Y0128465D03*
D20*
X0102647Y0128465D03*
D20*
X0104478Y0127854D03*
D20*
X0102037Y0127854D03*
D20*
X0104478Y0127244D03*
D20*
X0102037Y0127244D03*
D20*
X0104478Y0126634D03*
D20*
X0103868Y0126634D03*
D20*
X0103258Y0126634D03*
D20*
X0102647Y0126634D03*
D20*
X0104478Y0126024D03*
D20*
X0103258Y0126024D03*
D20*
X0104478Y0125413D03*
D20*
X0102647Y0125413D03*
D20*
X0104478Y0124803D03*
D20*
X0102037Y0124803D03*
D20*
X0100817Y0128465D03*
D20*
X0100206Y0128465D03*
D20*
X0099596Y0128465D03*
D20*
X0098986Y0128465D03*
D20*
X0098376Y0128465D03*
D20*
X0099596Y0127854D03*
D20*
X0099596Y0127244D03*
D20*
X0099596Y0126634D03*
D20*
X0099596Y0126024D03*
D20*
X0099596Y0125413D03*
D20*
X0099596Y0124803D03*
D20*
X0097155Y0128465D03*
D20*
X0096545Y0128465D03*
D20*
X0095935Y0128465D03*
D20*
X0095324Y0128465D03*
D20*
X0094714Y0128465D03*
D20*
X0095935Y0127854D03*
D20*
X0095935Y0127244D03*
D20*
X0095935Y0126634D03*
D20*
X0095935Y0126024D03*
D20*
X0095935Y0125413D03*
D20*
X0097155Y0124803D03*
D20*
X0096545Y0124803D03*
D20*
X0095935Y0124803D03*
D20*
X0095324Y0124803D03*
D20*
X0094714Y0124803D03*
D20*
X0092884Y0128465D03*
D20*
X0092273Y0128465D03*
D20*
X0091663Y0128465D03*
D20*
X0093494Y0127854D03*
D20*
X0091053Y0127854D03*
D20*
X0093494Y0127244D03*
D20*
X0091053Y0127244D03*
D20*
X0093494Y0126634D03*
D20*
X0091053Y0126634D03*
D20*
X0093494Y0126024D03*
D20*
X0091053Y0126024D03*
D20*
X0093494Y0125413D03*
D20*
X0091053Y0125413D03*
D20*
X0092884Y0124803D03*
D20*
X0092273Y0124803D03*
D20*
X0091663Y0124803D03*
D20*
X0089832Y0128465D03*
D20*
X0087391Y0128465D03*
D20*
X0089832Y0127854D03*
D20*
X0089222Y0127854D03*
D20*
X0087391Y0127854D03*
D20*
X0089832Y0127244D03*
D20*
X0088612Y0127244D03*
D20*
X0087391Y0127244D03*
D20*
X0089832Y0126634D03*
D20*
X0088002Y0126634D03*
D20*
X0087391Y0126634D03*
D20*
X0089832Y0126024D03*
D20*
X0087391Y0126024D03*
D20*
X0089832Y0125413D03*
D20*
X0087391Y0125413D03*
D20*
X0089832Y0124803D03*
D20*
X0087391Y0124803D03*
D20*
X0081899Y0128465D03*
D20*
X0081289Y0128465D03*
D20*
X0080679Y0128465D03*
D20*
X0080069Y0128465D03*
D20*
X0082510Y0127854D03*
D20*
X0082510Y0127244D03*
D20*
X0082510Y0126634D03*
D20*
X0082510Y0126024D03*
D20*
X0082510Y0125413D03*
D20*
X0081899Y0124803D03*
D20*
X0081289Y0124803D03*
D20*
X0080679Y0124803D03*
D20*
X0080069Y0124803D03*
D20*
X0078238Y0128465D03*
D20*
X0077628Y0128465D03*
D20*
X0077017Y0128465D03*
D20*
X0078848Y0127854D03*
D20*
X0076407Y0127854D03*
D20*
X0078848Y0127244D03*
D20*
X0076407Y0127244D03*
D20*
X0078848Y0126634D03*
D20*
X0078238Y0126634D03*
D20*
X0077628Y0126634D03*
D20*
X0077017Y0126634D03*
D20*
X0076407Y0126634D03*
D20*
X0078848Y0126024D03*
D20*
X0076407Y0126024D03*
D20*
X0078848Y0125413D03*
D20*
X0076407Y0125413D03*
D20*
X0078848Y0124803D03*
D20*
X0076407Y0124803D03*
D20*
X0075187Y0128465D03*
D20*
X0072746Y0128465D03*
D20*
X0075187Y0127854D03*
D20*
X0074576Y0127854D03*
D20*
X0072746Y0127854D03*
D20*
X0075187Y0127244D03*
D20*
X0073966Y0127244D03*
D20*
X0072746Y0127244D03*
D20*
X0075187Y0126634D03*
D20*
X0073356Y0126634D03*
D20*
X0072746Y0126634D03*
D20*
X0075187Y0126024D03*
D20*
X0072746Y0126024D03*
D20*
X0075187Y0125413D03*
D20*
X0072746Y0125413D03*
D20*
X0075187Y0124803D03*
D20*
X0072746Y0124803D03*
D20*
X0067864Y0128465D03*
D20*
X0067254Y0128465D03*
D20*
X0066643Y0128465D03*
D20*
X0066033Y0128465D03*
D20*
X0067864Y0127854D03*
D20*
X0065423Y0127854D03*
D20*
X0067864Y0127244D03*
D20*
X0065423Y0127244D03*
D20*
X0067864Y0126634D03*
D20*
X0065423Y0126634D03*
D20*
X0067864Y0126024D03*
D20*
X0065423Y0126024D03*
D20*
X0067864Y0125413D03*
D20*
X0065423Y0125413D03*
D20*
X0067864Y0124803D03*
D20*
X0067254Y0124803D03*
D20*
X0066643Y0124803D03*
D20*
X0066033Y0124803D03*
D20*
X0063592Y0128465D03*
D20*
X0062982Y0128465D03*
D20*
X0062372Y0128465D03*
D20*
X0064202Y0127854D03*
D20*
X0061761Y0127854D03*
D20*
X0064202Y0127244D03*
D20*
X0061761Y0127244D03*
D20*
X0064202Y0126634D03*
D20*
X0063592Y0126634D03*
D20*
X0062982Y0126634D03*
D20*
X0062372Y0126634D03*
D20*
X0061761Y0126634D03*
D20*
X0064202Y0126024D03*
D20*
X0061761Y0126024D03*
D20*
X0064202Y0125413D03*
D20*
X0061761Y0125413D03*
D20*
X0064202Y0124803D03*
D20*
X0061761Y0124803D03*
D20*
X0060541Y0128465D03*
D20*
X0058100Y0128465D03*
D20*
X0060541Y0127854D03*
D20*
X0059931Y0127854D03*
D20*
X0058710Y0127854D03*
D20*
X0058100Y0127854D03*
D20*
X0060541Y0127244D03*
D20*
X0059321Y0127244D03*
D20*
X0058100Y0127244D03*
D20*
X0060541Y0126634D03*
D20*
X0059321Y0126634D03*
D20*
X0058100Y0126634D03*
D20*
X0060541Y0126024D03*
D20*
X0058100Y0126024D03*
D20*
X0060541Y0125413D03*
D20*
X0058100Y0125413D03*
D20*
X0060541Y0124803D03*
D20*
X0058100Y0124803D03*
D20*
X0056269Y0128465D03*
D20*
X0055659Y0128465D03*
D20*
X0055049Y0128465D03*
D20*
X0056880Y0127854D03*
D20*
X0054439Y0127854D03*
D20*
X0056880Y0127244D03*
D20*
X0054439Y0127244D03*
D20*
X0056880Y0126634D03*
D20*
X0056269Y0126634D03*
D20*
X0055659Y0126634D03*
D20*
X0055049Y0126634D03*
D20*
X0054439Y0126634D03*
D20*
X0056880Y0126024D03*
D20*
X0054439Y0126024D03*
D20*
X0056880Y0125413D03*
D20*
X0054439Y0125413D03*
D20*
X0056880Y0124803D03*
D20*
X0054439Y0124803D03*
D20*
X0052608Y0128465D03*
D20*
X0051998Y0128465D03*
D20*
X0051387Y0128465D03*
D20*
X0050777Y0128465D03*
D20*
X0053218Y0127854D03*
D20*
X0053218Y0127244D03*
D20*
X0053218Y0126634D03*
D20*
X0051998Y0126634D03*
D20*
X0051387Y0126634D03*
D20*
X0050777Y0126634D03*
D20*
X0053218Y0126024D03*
D20*
X0050777Y0126024D03*
D20*
X0053218Y0125413D03*
D20*
X0050777Y0125413D03*
D20*
X0052608Y0124803D03*
D20*
X0051998Y0124803D03*
D20*
X0051387Y0124803D03*
D20*
X0050777Y0124803D03*
D20*
X0049557Y0128465D03*
D20*
X0048947Y0128465D03*
D20*
X0048336Y0128465D03*
D20*
X0047726Y0128465D03*
D20*
X0047116Y0128465D03*
D20*
X0049557Y0127854D03*
D20*
X0049557Y0127244D03*
D20*
X0049557Y0126634D03*
D20*
X0048947Y0126634D03*
D20*
X0048336Y0126634D03*
D20*
X0047726Y0126634D03*
D20*
X0049557Y0126024D03*
D20*
X0049557Y0125413D03*
D20*
X0049557Y0124803D03*
D20*
X0048947Y0124803D03*
D20*
X0048336Y0124803D03*
D20*
X0047726Y0124803D03*
D20*
X0047116Y0124803D03*
D20*
X0042234Y0128465D03*
D20*
X0041624Y0128465D03*
D20*
X0041013Y0128465D03*
D20*
X0040403Y0128465D03*
D20*
X0042234Y0127854D03*
D20*
X0039793Y0127854D03*
D20*
X0042234Y0127244D03*
D20*
X0039793Y0127244D03*
D20*
X0042234Y0126634D03*
D20*
X0041624Y0126634D03*
D20*
X0041013Y0126634D03*
D20*
X0040403Y0126634D03*
D20*
X0042234Y0126024D03*
D20*
X0039793Y0126024D03*
D20*
X0042234Y0125413D03*
D20*
X0039793Y0125413D03*
D20*
X0042234Y0124803D03*
D20*
X0041624Y0124803D03*
D20*
X0041013Y0124803D03*
D20*
X0040403Y0124803D03*
D20*
X0037962Y0128465D03*
D20*
X0037352Y0128465D03*
D20*
X0036742Y0128465D03*
D20*
X0038572Y0127854D03*
D20*
X0036132Y0127854D03*
D20*
X0038572Y0127244D03*
D20*
X0036132Y0127244D03*
D20*
X0038572Y0126634D03*
D20*
X0036132Y0126634D03*
D20*
X0038572Y0126024D03*
D20*
X0036132Y0126024D03*
D20*
X0038572Y0125413D03*
D20*
X0036132Y0125413D03*
D20*
X0037962Y0124803D03*
D20*
X0037352Y0124803D03*
D20*
X0036742Y0124803D03*
D20*
X0034301Y0128465D03*
D20*
X0033691Y0128465D03*
D20*
X0033080Y0128465D03*
D20*
X0034911Y0127854D03*
D20*
X0032470Y0127854D03*
D20*
X0034911Y0127244D03*
D20*
X0032470Y0127244D03*
D20*
X0034911Y0126634D03*
D20*
X0034301Y0126634D03*
D20*
X0033691Y0126634D03*
D20*
X0033080Y0126634D03*
D20*
X0032470Y0126634D03*
D20*
X0034911Y0126024D03*
D20*
X0032470Y0126024D03*
D20*
X0034911Y0125413D03*
D20*
X0032470Y0125413D03*
D20*
X0034911Y0124803D03*
D20*
X0032470Y0124803D03*
D20*
X0031250Y0128465D03*
D20*
X0030639Y0128465D03*
D20*
X0030029Y0128465D03*
D20*
X0029419Y0128465D03*
D20*
X0031250Y0127854D03*
D20*
X0028809Y0127854D03*
D20*
X0031250Y0127244D03*
D20*
X0028809Y0127244D03*
D20*
X0031250Y0126634D03*
D20*
X0030639Y0126634D03*
D20*
X0030029Y0126634D03*
D20*
X0029419Y0126634D03*
D20*
X0031250Y0126024D03*
D20*
X0030029Y0126024D03*
D20*
X0031250Y0125413D03*
D20*
X0029419Y0125413D03*
D20*
X0031250Y0124803D03*
D20*
X0028809Y0124803D03*
D20*
X0027588Y0128465D03*
D20*
X0026978Y0128465D03*
D20*
X0026368Y0128465D03*
D20*
X0025758Y0128465D03*
D20*
X0027588Y0127854D03*
D20*
X0025147Y0127854D03*
D20*
X0027588Y0127244D03*
D20*
X0025147Y0127244D03*
D20*
X0027588Y0126634D03*
D20*
X0025147Y0126634D03*
D20*
X0027588Y0126024D03*
D20*
X0025147Y0126024D03*
D20*
X0027588Y0125413D03*
D20*
X0025147Y0125413D03*
D20*
X0027588Y0124803D03*
D20*
X0026978Y0124803D03*
D20*
X0026368Y0124803D03*
D20*
X0025758Y0124803D03*
D20*
X0023317Y0128465D03*
D20*
X0022706Y0128465D03*
D20*
X0022096Y0128465D03*
D20*
X0021486Y0128465D03*
D20*
X0023927Y0127854D03*
D20*
X0023927Y0127244D03*
D20*
X0023317Y0126634D03*
D20*
X0022706Y0126634D03*
D20*
X0022096Y0126634D03*
D20*
X0021486Y0126024D03*
D20*
X0021486Y0125413D03*
D20*
X0023927Y0124803D03*
D20*
X0023317Y0124803D03*
D20*
X0022706Y0124803D03*
D20*
X0022096Y0124803D03*
D20*
X0058523Y0017598D03*
D20*
X0055846Y0017598D03*
D20*
X0058523Y0016929D03*
D20*
X0055846Y0016929D03*
D20*
X0058523Y0016260D03*
D20*
X0055846Y0016260D03*
D20*
X0058523Y0015591D03*
D20*
X0055846Y0015591D03*
D20*
X0058523Y0014921D03*
D20*
X0055846Y0014921D03*
D20*
X0058523Y0014252D03*
D20*
X0055846Y0014252D03*
D20*
X0057854Y0013583D03*
D20*
X0057185Y0013583D03*
D20*
X0056515Y0013583D03*
D20*
X0053838Y0017598D03*
D20*
X0053169Y0017598D03*
D20*
X0052500Y0017598D03*
D20*
X0051830Y0017598D03*
D20*
X0054508Y0016929D03*
D20*
X0054508Y0016260D03*
D20*
X0053838Y0015591D03*
D20*
X0053169Y0015591D03*
D20*
X0052500Y0015591D03*
D20*
X0051830Y0014921D03*
D20*
X0051830Y0014252D03*
D20*
X0054508Y0013583D03*
D20*
X0053838Y0013583D03*
D20*
X0053169Y0013583D03*
D20*
X0052500Y0013583D03*
D20*
X0050492Y0017598D03*
D20*
X0049822Y0017598D03*
D20*
X0049153Y0017598D03*
D20*
X0048484Y0017598D03*
D20*
X0050492Y0016929D03*
D20*
X0047815Y0016929D03*
D20*
X0050492Y0016260D03*
D20*
X0047815Y0016260D03*
D20*
X0050492Y0015591D03*
D20*
X0049822Y0015591D03*
D20*
X0049153Y0015591D03*
D20*
X0048484Y0015591D03*
D20*
X0050492Y0014921D03*
D20*
X0047815Y0014921D03*
D20*
X0050492Y0014252D03*
D20*
X0047815Y0014252D03*
D20*
X0050492Y0013583D03*
D20*
X0049822Y0013583D03*
D20*
X0049153Y0013583D03*
D20*
X0048484Y0013583D03*
D20*
X0042460Y0017598D03*
D20*
X0041791Y0017598D03*
D20*
X0041122Y0017598D03*
D20*
X0040452Y0017598D03*
D20*
X0039783Y0017598D03*
D20*
X0042460Y0016929D03*
D20*
X0042460Y0016260D03*
D20*
X0042460Y0015591D03*
D20*
X0041791Y0015591D03*
D20*
X0041122Y0015591D03*
D20*
X0040452Y0015591D03*
D20*
X0042460Y0014921D03*
D20*
X0042460Y0014252D03*
D20*
X0042460Y0013583D03*
D20*
X0041791Y0013583D03*
D20*
X0041122Y0013583D03*
D20*
X0040452Y0013583D03*
D20*
X0039783Y0013583D03*
D20*
X0038445Y0017598D03*
D20*
X0035767Y0017598D03*
D20*
X0038445Y0016929D03*
D20*
X0037775Y0016929D03*
D20*
X0035767Y0016929D03*
D20*
X0038445Y0016260D03*
D20*
X0037106Y0016260D03*
D20*
X0035767Y0016260D03*
D20*
X0038445Y0015591D03*
D20*
X0036437Y0015591D03*
D20*
X0035767Y0015591D03*
D20*
X0038445Y0014921D03*
D20*
X0035767Y0014921D03*
D20*
X0038445Y0014252D03*
D20*
X0035767Y0014252D03*
D20*
X0038445Y0013583D03*
D20*
X0035767Y0013583D03*
D20*
X0034429Y0017598D03*
D20*
X0033760Y0017598D03*
D20*
X0033090Y0017598D03*
D20*
X0032421Y0017598D03*
D20*
X0034429Y0016929D03*
D20*
X0031752Y0016929D03*
D20*
X0034429Y0016260D03*
D20*
X0031752Y0016260D03*
D20*
X0034429Y0015591D03*
D20*
X0031752Y0015591D03*
D20*
X0034429Y0014921D03*
D20*
X0031752Y0014921D03*
D20*
X0034429Y0014252D03*
D20*
X0031752Y0014252D03*
D20*
X0034429Y0013583D03*
D20*
X0033760Y0013583D03*
D20*
X0033090Y0013583D03*
D20*
X0032421Y0013583D03*
D20*
X0144173Y0021811D03*
D20*
X0144921Y0021063D03*
D20*
X0144173Y0021063D03*
D20*
X0144173Y0020315D03*
D20*
X0144173Y0019567D03*
D20*
X0144173Y0018819D03*
D20*
X0144173Y0018071D03*
D20*
X0144921Y0017323D03*
D20*
X0144173Y0017323D03*
D20*
X0143425Y0017323D03*
D20*
X0136693Y0021811D03*
D20*
X0135945Y0021811D03*
D20*
X0135197Y0021811D03*
D20*
X0134448Y0021811D03*
D20*
X0133700Y0021811D03*
D20*
X0136693Y0021063D03*
D20*
X0136693Y0020315D03*
D20*
X0136693Y0019567D03*
D20*
X0135945Y0019567D03*
D20*
X0135197Y0019567D03*
D20*
X0134448Y0019567D03*
D20*
X0133700Y0018819D03*
D20*
X0133700Y0018071D03*
D20*
X0136693Y0017323D03*
D20*
X0135945Y0017323D03*
D20*
X0135197Y0017323D03*
D20*
X0134448Y0017323D03*
D20*
X0132204Y0021811D03*
D20*
X0129212Y0021811D03*
D20*
X0132204Y0021063D03*
D20*
X0129212Y0021063D03*
D20*
X0132204Y0020315D03*
D20*
X0129212Y0020315D03*
D20*
X0132204Y0019567D03*
D20*
X0129212Y0019567D03*
D20*
X0132204Y0018819D03*
D20*
X0129212Y0018819D03*
D20*
X0131456Y0018071D03*
D20*
X0129960Y0018071D03*
D20*
X0130708Y0017323D03*
G04 Bottom silkscreen mirrored horizontally for correct physical backside readability*
G04 Small bottom-side PCB portrait - decorative silkscreen only*
D21*
X0127953Y0072244D03*
X0128544Y0072244D03*
X0129134Y0072244D03*
X0129725Y0072244D03*
X0130315Y0072244D03*
X0130906Y0072244D03*
X0131497Y0072244D03*
X0132087Y0072244D03*
X0132678Y0072244D03*
X0133268Y0072244D03*
X0126182Y0071654D03*
X0126772Y0071654D03*
X0127363Y0071654D03*
X0133268Y0071654D03*
X0133859Y0071654D03*
X0134449Y0071654D03*
X0135040Y0071654D03*
X0135630Y0071654D03*
X0125001Y0071063D03*
X0125591Y0071063D03*
X0129725Y0071063D03*
X0136221Y0071063D03*
X0136812Y0071063D03*
X0137402Y0071063D03*
X0137993Y0071063D03*
X0125001Y0070472D03*
X0126772Y0070472D03*
X0127363Y0070472D03*
X0128544Y0070472D03*
X0129134Y0070472D03*
X0130906Y0070472D03*
X0131497Y0070472D03*
X0137993Y0070472D03*
X0138583Y0070472D03*
X0124410Y0069882D03*
X0126182Y0069882D03*
X0126772Y0069882D03*
X0127953Y0069882D03*
X0128544Y0069882D03*
X0129725Y0069882D03*
X0130315Y0069882D03*
X0139174Y0069882D03*
X0139764Y0069882D03*
X0124410Y0069291D03*
X0126182Y0069291D03*
X0127953Y0069291D03*
X0129134Y0069291D03*
X0129725Y0069291D03*
X0139764Y0069291D03*
X0140355Y0069291D03*
X0123819Y0068701D03*
X0124410Y0068701D03*
X0125591Y0068701D03*
X0127363Y0068701D03*
X0129134Y0068701D03*
X0131497Y0068701D03*
X0132087Y0068701D03*
X0132678Y0068701D03*
X0133268Y0068701D03*
X0133859Y0068701D03*
X0134449Y0068701D03*
X0135040Y0068701D03*
X0140355Y0068701D03*
X0140945Y0068701D03*
X0123229Y0068110D03*
X0123819Y0068110D03*
X0125591Y0068110D03*
X0127363Y0068110D03*
X0129725Y0068110D03*
X0130315Y0068110D03*
X0130906Y0068110D03*
X0135040Y0068110D03*
X0135630Y0068110D03*
X0136221Y0068110D03*
X0139764Y0068110D03*
X0140355Y0068110D03*
X0140945Y0068110D03*
X0122638Y0067520D03*
X0125591Y0067520D03*
X0126182Y0067520D03*
X0126772Y0067520D03*
X0127363Y0067520D03*
X0127953Y0067520D03*
X0128544Y0067520D03*
X0129134Y0067520D03*
X0129725Y0067520D03*
X0136221Y0067520D03*
X0136812Y0067520D03*
X0140355Y0067520D03*
X0140945Y0067520D03*
X0141536Y0067520D03*
X0122048Y0066929D03*
X0126772Y0066929D03*
X0127363Y0066929D03*
X0136812Y0066929D03*
X0137402Y0066929D03*
X0140945Y0066929D03*
X0141536Y0066929D03*
X0122048Y0066339D03*
X0137402Y0066339D03*
X0140945Y0066339D03*
X0121457Y0065748D03*
X0137993Y0065748D03*
X0141536Y0065748D03*
X0121457Y0065157D03*
X0137993Y0065157D03*
X0141536Y0065157D03*
X0120867Y0064567D03*
X0121457Y0064567D03*
X0138583Y0064567D03*
X0142127Y0064567D03*
X0120867Y0063976D03*
X0138583Y0063976D03*
X0142127Y0063976D03*
X0120867Y0063386D03*
X0138583Y0063386D03*
X0142127Y0063386D03*
X0120867Y0062795D03*
X0138583Y0062795D03*
X0142127Y0062795D03*
X0120867Y0062205D03*
X0122048Y0062205D03*
X0122638Y0062205D03*
X0123229Y0062205D03*
X0123819Y0062205D03*
X0124410Y0062205D03*
X0129725Y0062205D03*
X0130315Y0062205D03*
X0130906Y0062205D03*
X0131497Y0062205D03*
X0132087Y0062205D03*
X0132678Y0062205D03*
X0138583Y0062205D03*
X0142127Y0062205D03*
X0120276Y0061614D03*
X0120867Y0061614D03*
X0121457Y0061614D03*
X0122048Y0061614D03*
X0122638Y0061614D03*
X0123229Y0061614D03*
X0123819Y0061614D03*
X0124410Y0061614D03*
X0129134Y0061614D03*
X0129725Y0061614D03*
X0130315Y0061614D03*
X0130906Y0061614D03*
X0131497Y0061614D03*
X0132087Y0061614D03*
X0132678Y0061614D03*
X0133268Y0061614D03*
X0133859Y0061614D03*
X0134449Y0061614D03*
X0137993Y0061614D03*
X0142127Y0061614D03*
X0120276Y0061024D03*
X0133859Y0061024D03*
X0134449Y0061024D03*
X0137993Y0061024D03*
X0142127Y0061024D03*
X0120276Y0060433D03*
X0122048Y0060433D03*
X0122638Y0060433D03*
X0123229Y0060433D03*
X0130906Y0060433D03*
X0131497Y0060433D03*
X0132087Y0060433D03*
X0132678Y0060433D03*
X0137402Y0060433D03*
X0142127Y0060433D03*
X0120276Y0059842D03*
X0120867Y0059842D03*
X0121457Y0059842D03*
X0123229Y0059842D03*
X0123819Y0059842D03*
X0130315Y0059842D03*
X0130906Y0059842D03*
X0133268Y0059842D03*
X0133859Y0059842D03*
X0137402Y0059842D03*
X0142127Y0059842D03*
X0120276Y0059252D03*
X0124410Y0059252D03*
X0129725Y0059252D03*
X0133859Y0059252D03*
X0134449Y0059252D03*
X0136812Y0059252D03*
X0142127Y0059252D03*
X0119686Y0058661D03*
X0120276Y0058661D03*
X0120867Y0058661D03*
X0121457Y0058661D03*
X0122048Y0058661D03*
X0122638Y0058661D03*
X0123229Y0058661D03*
X0123819Y0058661D03*
X0124410Y0058661D03*
X0125001Y0058661D03*
X0129134Y0058661D03*
X0129725Y0058661D03*
X0130315Y0058661D03*
X0130906Y0058661D03*
X0131497Y0058661D03*
X0132087Y0058661D03*
X0132678Y0058661D03*
X0133268Y0058661D03*
X0133859Y0058661D03*
X0134449Y0058661D03*
X0136812Y0058661D03*
X0139174Y0058661D03*
X0142127Y0058661D03*
X0119686Y0058071D03*
X0125001Y0058071D03*
X0129134Y0058071D03*
X0134449Y0058071D03*
X0135040Y0058071D03*
X0136221Y0058071D03*
X0137993Y0058071D03*
X0138583Y0058071D03*
X0139174Y0058071D03*
X0139764Y0058071D03*
X0140355Y0058071D03*
X0142127Y0058071D03*
X0119095Y0057480D03*
X0125001Y0057480D03*
X0128544Y0057480D03*
X0135040Y0057480D03*
X0136221Y0057480D03*
X0142127Y0057480D03*
X0119095Y0056890D03*
X0122638Y0056890D03*
X0125001Y0056890D03*
X0128544Y0056890D03*
X0131497Y0056890D03*
X0135040Y0056890D03*
X0136221Y0056890D03*
X0142127Y0056890D03*
X0119095Y0056299D03*
X0122638Y0056299D03*
X0125001Y0056299D03*
X0128544Y0056299D03*
X0131497Y0056299D03*
X0135040Y0056299D03*
X0136221Y0056299D03*
X0139764Y0056299D03*
X0140355Y0056299D03*
X0140945Y0056299D03*
X0141536Y0056299D03*
X0142127Y0056299D03*
X0119686Y0055709D03*
X0125001Y0055709D03*
X0128544Y0055709D03*
X0129134Y0055709D03*
X0134449Y0055709D03*
X0135040Y0055709D03*
X0136221Y0055709D03*
X0139174Y0055709D03*
X0139764Y0055709D03*
X0141536Y0055709D03*
X0119686Y0055118D03*
X0124410Y0055118D03*
X0125001Y0055118D03*
X0129134Y0055118D03*
X0134449Y0055118D03*
X0136221Y0055118D03*
X0138583Y0055118D03*
X0139174Y0055118D03*
X0142127Y0055118D03*
X0119686Y0054528D03*
X0120276Y0054528D03*
X0123819Y0054528D03*
X0124410Y0054528D03*
X0129134Y0054528D03*
X0129725Y0054528D03*
X0133859Y0054528D03*
X0134449Y0054528D03*
X0136221Y0054528D03*
X0138583Y0054528D03*
X0139174Y0054528D03*
X0142127Y0054528D03*
X0119095Y0053937D03*
X0120867Y0053937D03*
X0121457Y0053937D03*
X0122638Y0053937D03*
X0123229Y0053937D03*
X0123819Y0053937D03*
X0124410Y0053937D03*
X0129725Y0053937D03*
X0130315Y0053937D03*
X0133268Y0053937D03*
X0133859Y0053937D03*
X0136221Y0053937D03*
X0138583Y0053937D03*
X0139764Y0053937D03*
X0140355Y0053937D03*
X0142127Y0053937D03*
X0119095Y0053346D03*
X0122048Y0053346D03*
X0122638Y0053346D03*
X0123819Y0053346D03*
X0130906Y0053346D03*
X0131497Y0053346D03*
X0132087Y0053346D03*
X0132678Y0053346D03*
X0135630Y0053346D03*
X0136221Y0053346D03*
X0138583Y0053346D03*
X0139764Y0053346D03*
X0142127Y0053346D03*
X0119095Y0052756D03*
X0123819Y0052756D03*
X0135630Y0052756D03*
X0138583Y0052756D03*
X0141536Y0052756D03*
X0142127Y0052756D03*
X0119095Y0052165D03*
X0123229Y0052165D03*
X0123819Y0052165D03*
X0135630Y0052165D03*
X0138583Y0052165D03*
X0141536Y0052165D03*
X0118504Y0051575D03*
X0119095Y0051575D03*
X0123229Y0051575D03*
X0135630Y0051575D03*
X0138583Y0051575D03*
X0140945Y0051575D03*
X0141536Y0051575D03*
X0142127Y0051575D03*
X0118504Y0050984D03*
X0123229Y0050984D03*
X0135630Y0050984D03*
X0137993Y0050984D03*
X0139764Y0050984D03*
X0140355Y0050984D03*
X0140945Y0050984D03*
X0142127Y0050984D03*
X0142717Y0050984D03*
X0143308Y0050984D03*
X0143898Y0050984D03*
X0118504Y0050394D03*
X0123229Y0050394D03*
X0135630Y0050394D03*
X0137993Y0050394D03*
X0140355Y0050394D03*
X0143308Y0050394D03*
X0143898Y0050394D03*
X0118504Y0049803D03*
X0122638Y0049803D03*
X0123229Y0049803D03*
X0126772Y0049803D03*
X0127363Y0049803D03*
X0127953Y0049803D03*
X0135630Y0049803D03*
X0137993Y0049803D03*
X0140355Y0049803D03*
X0143308Y0049803D03*
X0118504Y0049213D03*
X0121457Y0049213D03*
X0122048Y0049213D03*
X0122638Y0049213D03*
X0123819Y0049213D03*
X0124410Y0049213D03*
X0125001Y0049213D03*
X0125591Y0049213D03*
X0126182Y0049213D03*
X0127953Y0049213D03*
X0128544Y0049213D03*
X0129134Y0049213D03*
X0129725Y0049213D03*
X0130315Y0049213D03*
X0135040Y0049213D03*
X0137993Y0049213D03*
X0140355Y0049213D03*
X0142717Y0049213D03*
X0143308Y0049213D03*
X0118504Y0048622D03*
X0120867Y0048622D03*
X0130906Y0048622D03*
X0131497Y0048622D03*
X0135040Y0048622D03*
X0137993Y0048622D03*
X0140355Y0048622D03*
X0143308Y0048622D03*
X0118504Y0048031D03*
X0120276Y0048031D03*
X0132087Y0048031D03*
X0135040Y0048031D03*
X0137993Y0048031D03*
X0139764Y0048031D03*
X0140355Y0048031D03*
X0143308Y0048031D03*
X0118504Y0047441D03*
X0119686Y0047441D03*
X0120276Y0047441D03*
X0132678Y0047441D03*
X0135040Y0047441D03*
X0137402Y0047441D03*
X0139764Y0047441D03*
X0143308Y0047441D03*
X0118504Y0046850D03*
X0119095Y0046850D03*
X0119686Y0046850D03*
X0125591Y0046850D03*
X0132678Y0046850D03*
X0133268Y0046850D03*
X0135040Y0046850D03*
X0135630Y0046850D03*
X0136221Y0046850D03*
X0136812Y0046850D03*
X0137402Y0046850D03*
X0139764Y0046850D03*
X0142717Y0046850D03*
X0116733Y0046260D03*
X0117323Y0046260D03*
X0117914Y0046260D03*
X0118504Y0046260D03*
X0125591Y0046260D03*
X0126182Y0046260D03*
X0133268Y0046260D03*
X0139764Y0046260D03*
X0140355Y0046260D03*
X0140945Y0046260D03*
X0141536Y0046260D03*
X0142127Y0046260D03*
X0117323Y0045669D03*
X0125001Y0045669D03*
X0126182Y0045669D03*
X0126772Y0045669D03*
X0133859Y0045669D03*
X0134449Y0045669D03*
X0139764Y0045669D03*
X0140945Y0045669D03*
X0117914Y0045079D03*
X0118504Y0045079D03*
X0124410Y0045079D03*
X0125001Y0045079D03*
X0125591Y0045079D03*
X0126182Y0045079D03*
X0126772Y0045079D03*
X0134449Y0045079D03*
X0135040Y0045079D03*
X0135630Y0045079D03*
X0139764Y0045079D03*
X0118504Y0044488D03*
X0119095Y0044488D03*
X0119686Y0044488D03*
X0123229Y0044488D03*
X0123819Y0044488D03*
X0124410Y0044488D03*
X0127363Y0044488D03*
X0135040Y0044488D03*
X0135630Y0044488D03*
X0139174Y0044488D03*
X0118504Y0043898D03*
X0119686Y0043898D03*
X0120276Y0043898D03*
X0120867Y0043898D03*
X0121457Y0043898D03*
X0122048Y0043898D03*
X0122638Y0043898D03*
X0123819Y0043898D03*
X0127953Y0043898D03*
X0128544Y0043898D03*
X0134449Y0043898D03*
X0135040Y0043898D03*
X0139174Y0043898D03*
X0118504Y0043307D03*
X0123819Y0043307D03*
X0124410Y0043307D03*
X0125001Y0043307D03*
X0125591Y0043307D03*
X0126182Y0043307D03*
X0126772Y0043307D03*
X0127363Y0043307D03*
X0127953Y0043307D03*
X0128544Y0043307D03*
X0129134Y0043307D03*
X0129725Y0043307D03*
X0130315Y0043307D03*
X0132087Y0043307D03*
X0132678Y0043307D03*
X0133268Y0043307D03*
X0133859Y0043307D03*
X0139174Y0043307D03*
X0118504Y0042717D03*
X0123229Y0042717D03*
X0130906Y0042717D03*
X0131497Y0042717D03*
X0132087Y0042717D03*
X0139174Y0042717D03*
X0119095Y0042126D03*
X0123819Y0042126D03*
X0139174Y0042126D03*
X0119095Y0041535D03*
X0123819Y0041535D03*
X0124410Y0041535D03*
X0125001Y0041535D03*
X0125591Y0041535D03*
X0126182Y0041535D03*
X0126772Y0041535D03*
X0139174Y0041535D03*
X0119095Y0040945D03*
X0119686Y0040945D03*
X0138583Y0040945D03*
X0119686Y0040354D03*
X0138583Y0040354D03*
X0119686Y0039764D03*
X0120276Y0039764D03*
X0138583Y0039764D03*
X0120276Y0039173D03*
X0138583Y0039173D03*
X0140355Y0039173D03*
X0140945Y0039173D03*
X0141536Y0039173D03*
X0142127Y0039173D03*
X0120867Y0038583D03*
X0138583Y0038583D03*
X0139174Y0038583D03*
X0139764Y0038583D03*
X0140355Y0038583D03*
X0142127Y0038583D03*
X0142717Y0038583D03*
X0143308Y0038583D03*
X0143898Y0038583D03*
X0121457Y0037992D03*
X0138583Y0037992D03*
X0144489Y0037992D03*
X0145079Y0037992D03*
X0121457Y0037402D03*
X0122048Y0037402D03*
X0122638Y0037402D03*
X0138583Y0037402D03*
X0145079Y0037402D03*
X0120867Y0036811D03*
X0121457Y0036811D03*
X0122638Y0036811D03*
X0123229Y0036811D03*
X0130315Y0036811D03*
X0130906Y0036811D03*
X0138583Y0036811D03*
X0140945Y0036811D03*
X0141536Y0036811D03*
X0142127Y0036811D03*
X0142717Y0036811D03*
X0145670Y0036811D03*
X0120276Y0036220D03*
X0120867Y0036220D03*
X0123819Y0036220D03*
X0124410Y0036220D03*
X0125001Y0036220D03*
X0125591Y0036220D03*
X0128544Y0036220D03*
X0129134Y0036220D03*
X0129725Y0036220D03*
X0130315Y0036220D03*
X0139174Y0036220D03*
X0139764Y0036220D03*
X0140355Y0036220D03*
X0145670Y0036220D03*
X0120276Y0035630D03*
X0123819Y0035630D03*
X0125591Y0035630D03*
X0126182Y0035630D03*
X0126772Y0035630D03*
X0127363Y0035630D03*
X0127953Y0035630D03*
X0128544Y0035630D03*
X0138583Y0035630D03*
X0139174Y0035630D03*
X0145670Y0035630D03*
X0119686Y0035039D03*
X0123819Y0035039D03*
X0137993Y0035039D03*
X0145670Y0035039D03*
X0119686Y0034449D03*
X0123819Y0034449D03*
X0137402Y0034449D03*
X0137993Y0034449D03*
X0145670Y0034449D03*
X0146260Y0034449D03*
X0119686Y0033858D03*
X0123819Y0033858D03*
X0137402Y0033858D03*
X0146851Y0033858D03*
X0119686Y0033268D03*
X0123819Y0033268D03*
X0136812Y0033268D03*
X0137402Y0033268D03*
X0147441Y0033268D03*
X0119686Y0032677D03*
X0123819Y0032677D03*
X0136812Y0032677D03*
X0148032Y0032677D03*
X0119095Y0032087D03*
X0123819Y0032087D03*
X0135630Y0032087D03*
X0136221Y0032087D03*
X0148032Y0032087D03*
X0116142Y0031496D03*
X0116733Y0031496D03*
X0117323Y0031496D03*
X0117914Y0031496D03*
X0118504Y0031496D03*
X0119095Y0031496D03*
X0124410Y0031496D03*
X0125001Y0031496D03*
X0125591Y0031496D03*
X0126182Y0031496D03*
X0126772Y0031496D03*
X0127363Y0031496D03*
X0127953Y0031496D03*
X0128544Y0031496D03*
X0129134Y0031496D03*
X0129725Y0031496D03*
X0130315Y0031496D03*
X0130906Y0031496D03*
X0131497Y0031496D03*
X0132087Y0031496D03*
X0132678Y0031496D03*
X0133268Y0031496D03*
X0133859Y0031496D03*
X0134449Y0031496D03*
X0135040Y0031496D03*
X0135630Y0031496D03*
X0148032Y0031496D03*
M02*
