G04 Top copper - PN5180 to XIAO ESP32-C3*
%FSLAX25Y25*%
%MOIN*%
%IPPOS*%
%LPD*%
%ADD10C,0.070866*%
%ADD11C,0.009843*%
%ADD12C,0.019685*%
%ADD13C,0.031496*%
%ADD14R,0.070866X0.070866*%
%ADD15C,0.088189*%
%ADD16C,0.027165*%
%ADD17C,0.137795*%
G01*
D14*
X0013780Y0019685D03*
D10*
X0013780Y0029685D03*
D10*
X0013780Y0039685D03*
D10*
X0013780Y0049685D03*
D10*
X0013780Y0059685D03*
D10*
X0013780Y0069685D03*
D10*
X0013780Y0079685D03*
D10*
X0013780Y0089685D03*
D10*
X0013780Y0099685D03*
D10*
X0013780Y0109685D03*
D10*
X0013780Y0119685D03*
D10*
X0013780Y0129685D03*
D10*
X0013780Y0139685D03*
D10*
X0154488Y0019685D03*
D10*
X0154488Y0029685D03*
D10*
X0154488Y0039685D03*
D10*
X0154488Y0049685D03*
D10*
X0154488Y0059685D03*
D10*
X0154488Y0069685D03*
D10*
X0154488Y0079685D03*
D10*
X0094488Y0079685D03*
D10*
X0094488Y0069685D03*
D10*
X0094488Y0059685D03*
D10*
X0094488Y0049685D03*
D10*
X0094488Y0039685D03*
D10*
X0094488Y0029685D03*
D10*
X0094488Y0019685D03*
D13*
X0013780Y0019685D02*
X0094488Y0019685D01*
D12*
X0013780Y0029685D02*
X0076772Y0029685D01*
X0076772Y0034685D01*
X0086614Y0034685D01*
X0086614Y0039685D01*
X0094488Y0039685D01*
D11*
X0013780Y0039685D02*
X0078740Y0039685D01*
X0078740Y0044685D01*
X0149606Y0044685D01*
X0149606Y0039685D01*
X0154488Y0039685D01*
D11*
X0013780Y0049685D02*
X0078740Y0049685D01*
X0078740Y0054685D01*
X0149606Y0054685D01*
X0149606Y0049685D01*
X0154488Y0049685D01*
D11*
X0013780Y0059685D02*
X0078740Y0059685D01*
X0078740Y0064685D01*
X0149606Y0064685D01*
X0149606Y0059685D01*
X0154488Y0059685D01*
D11*
X0013780Y0069685D02*
X0078740Y0069685D01*
X0078740Y0074685D01*
X0149606Y0074685D01*
X0149606Y0069685D01*
X0154488Y0069685D01*
D11*
X0013780Y0079685D02*
X0078740Y0079685D01*
X0078740Y0084685D01*
X0149606Y0084685D01*
X0149606Y0079685D01*
X0154488Y0079685D01*
M02*
